<svg width="16" height="15" viewBox="0 0 16 15" fill="none" xmlns="http://www.w3.org/2000/svg">
<path d="M8 9.37124C6.89544 9.37124 6 10.2112 6 11.2474V14.9997H10V11.2474C10 10.2112 9.10456 9.37124 8 9.37124Z" fill="#666666"/>
<path d="M11.3333 11.2477V15H14C15.1046 15 16 14.16 16 13.1238V7.41966C16.0002 7.09476 15.8656 6.78256 15.6247 6.54912L9.95934 0.803651C8.95972 -0.210946 7.27259 -0.27324 6.19103 0.664492C6.13966 0.709051 6.09016 0.755457 6.04269 0.803651L0.387344 6.54725C0.139156 6.78165 -9.37027e-05 7.09866 4.73071e-08 7.42905V13.1238C4.73071e-08 14.16 0.895437 15 2 15H4.66666V11.2477C4.67912 9.54234 6.14684 8.14976 7.91894 8.10966C9.75031 8.0682 11.3194 9.48451 11.3333 11.2477Z" fill="#666666"/>
<path d="M8 9.37124C6.89544 9.37124 6 10.2112 6 11.2474V14.9997H10V11.2474C10 10.2112 9.10456 9.37124 8 9.37124Z" fill="#666666"/>
</svg>
