<svg width="26" height="30" viewBox="0 0 26 30" fill="none" xmlns="http://www.w3.org/2000/svg">
<path d="M3.60093 22.4953H22.398C22.9765 22.4953 23.5465 22.3503 24.0598 22.0725C24.573 21.7947 25.0145 21.3923 25.3467 20.8994C25.679 20.4064 25.8923 19.8374 25.9685 19.2405C26.0448 18.6436 25.9819 18.0363 25.785 17.4701L22.3608 7.61592C21.776 5.42601 20.5182 3.49576 18.7797 2.1204C17.0412 0.745032 14.9178 0.000265043 12.7341 1.27132e-09C10.461 -3.69827e-05 8.25583 0.806817 6.4827 2.28735C4.70956 3.76787 3.47449 5.83355 2.98141 8.14331L0.159924 17.6413C-0.00619555 18.2021 -0.0435408 18.7956 0.050893 19.3741C0.145327 19.9527 0.368903 20.5 0.703632 20.9722C1.03836 21.4444 1.4749 21.8282 1.97811 22.0927C2.48133 22.3573 3.03718 22.4952 3.60093 22.4953Z" fill="white"/>
<path d="M7.24104 24.9947C7.51661 26.4073 8.25285 27.6773 9.32503 28.5895C10.3972 29.5017 11.7394 30 13.1241 30C14.5089 30 15.8511 29.5017 16.9232 28.5895C17.9954 27.6773 18.7317 26.4073 19.0072 24.9947H7.24104Z" fill="white"/>
</svg>
