<svg width="30" height="30" viewBox="0 0 30 30" fill="none" xmlns="http://www.w3.org/2000/svg">
<path d="M15.0007 15.2727C17.5612 15.2727 19.637 13.1969 19.637 10.6364C19.637 8.07577 17.5612 6 15.0007 6C12.4401 6 10.3643 8.07577 10.3643 10.6364C10.3643 13.1969 12.4401 15.2727 15.0007 15.2727Z" fill="white"/>
<path d="M15 0C12.0333 0 9.13319 0.879735 6.66645 2.52796C4.19971 4.17618 2.27713 6.51885 1.14181 9.25975C0.00649962 12.0006 -0.290551 15.0166 0.288227 17.9264C0.867006 20.8361 2.29562 23.5088 4.3934 25.6066C6.49119 27.7044 9.16394 29.133 12.0737 29.7118C14.9834 30.2906 17.9994 29.9935 20.7403 28.8582C23.4811 27.7229 25.8238 25.8003 27.472 23.3335C29.1203 20.8668 30 17.9667 30 15C29.9955 11.0231 28.4137 7.21044 25.6016 4.39837C22.7896 1.5863 18.9769 0.00450427 15 0ZM22.6779 23.5589C22.4631 23.5841 22.247 23.5241 22.0759 23.3919C21.9048 23.2597 21.7922 23.0658 21.7622 22.8516C21.5494 21.2086 20.7456 19.6993 19.5012 18.6057C18.2568 17.5121 16.6567 16.9089 15 16.9089C13.3433 16.9089 11.7433 17.5121 10.4988 18.6057C9.25436 19.6993 8.45063 21.2086 8.23779 22.8516C8.2101 23.0669 8.09801 23.2624 7.92619 23.395C7.75437 23.5277 7.53689 23.5867 7.32159 23.559C7.10629 23.5313 6.9108 23.4192 6.77813 23.2474C6.64547 23.0756 6.5865 22.8581 6.61419 22.6428C6.80527 21.1826 7.37441 19.7975 8.26528 18.6248C9.15614 17.4522 10.3378 16.5325 11.6934 15.9568C10.5344 15.2379 9.64131 14.1608 9.14943 12.8887C8.65755 11.6166 8.59367 10.2189 8.96746 8.90728C9.34125 7.59565 10.1323 6.44158 11.2209 5.6199C12.3094 4.79822 13.6361 4.35371 15 4.35371C16.3639 4.35371 17.6906 4.79822 18.7791 5.6199C19.8677 6.44158 20.6588 7.59565 21.0325 8.90728C21.4063 10.2189 21.3425 11.6166 20.8506 12.8887C20.3587 14.1608 19.4656 15.2379 18.3067 15.9568C19.6622 16.5325 20.8439 17.4522 21.7347 18.6248C22.6256 19.7975 23.1947 21.1826 23.3858 22.6428C23.4134 22.8581 23.3543 23.0756 23.2215 23.2474C23.0888 23.4192 22.8933 23.5313 22.6779 23.5589Z" fill="white"/>
</svg>
