<svg width="28" height="29" viewBox="0 0 28 29" fill="none" xmlns="http://www.w3.org/2000/svg">
<path d="M27.1651 4.92625C26.8287 4.51837 26.4075 4.19033 25.9315 3.96542C25.4554 3.74051 24.9362 3.62426 24.4107 3.6249H5.0735L5.02326 3.20079C4.92046 2.31924 4.50107 1.50643 3.84458 0.91647C3.18809 0.326511 2.34016 0.00041299 1.46153 0H1.19602C0.878812 0 0.574601 0.127303 0.350305 0.353903C0.126008 0.580504 0 0.88784 0 1.2083C0 1.52876 0.126008 1.8361 0.350305 2.0627C0.574601 2.2893 0.878812 2.4166 1.19602 2.4166H1.46153C1.75447 2.41664 2.03722 2.5253 2.25613 2.72196C2.47504 2.91862 2.6149 3.18961 2.64917 3.48353L4.29489 17.6207C4.46574 19.0909 5.16497 20.4466 6.25983 21.4304C7.3547 22.4143 8.76901 22.9578 10.2343 22.9577H22.7243C23.0415 22.9577 23.3457 22.8304 23.57 22.6038C23.7943 22.3772 23.9203 22.0699 23.9203 21.7494C23.9203 21.429 23.7943 21.1216 23.57 20.895C23.3457 20.6684 23.0415 20.5411 22.7243 20.5411H10.2343C9.49404 20.539 8.77253 20.3057 8.16871 19.873C7.56488 19.4404 7.10829 18.8296 6.86154 18.1245H21.118C22.5201 18.1246 23.8777 17.627 24.9535 16.7186C26.0292 15.8102 26.7549 14.5488 27.0036 13.1548L27.9425 7.89383C28.0362 7.37186 28.0152 6.83544 27.8808 6.3226C27.7465 5.80976 27.5021 5.33305 27.1651 4.92625Z" fill="white"/>
<path d="M8.37201 29C9.69309 29 10.764 27.9181 10.764 26.5834C10.764 25.2488 9.69309 24.1668 8.37201 24.1668C7.05093 24.1668 5.97998 25.2488 5.97998 26.5834C5.97998 27.9181 7.05093 29 8.37201 29Z" fill="white"/>
<path d="M20.3323 29C21.6533 29 22.7243 27.9181 22.7243 26.5834C22.7243 25.2488 21.6533 24.1668 20.3323 24.1668C19.0112 24.1668 17.9402 25.2488 17.9402 26.5834C17.9402 27.9181 19.0112 29 20.3323 29Z" fill="white"/>
</svg>
