<svg width="16" height="16" viewBox="0 0 16 16" fill="none" xmlns="http://www.w3.org/2000/svg">
<path d="M15.9728 13.6515L14.861 6.60067C14.7145 5.65695 13.9498 4.9627 13.0223 4.89219V7.05085H13.1579C13.3803 7.05085 13.5647 7.23524 13.5647 7.45763C13.5647 7.67999 13.3803 7.86441 13.1579 7.86441H12.0731C11.8508 7.86441 11.6664 7.67999 11.6664 7.45763C11.6664 7.23524 11.8508 7.05085 12.0731 7.05085H12.2087V4.88136H6.51382V7.05085H6.64942C6.87181 7.05085 7.0562 7.23524 7.0562 7.45763C7.0562 7.67999 6.87181 7.86441 6.64942 7.86441H5.56467C5.34232 7.86441 5.15789 7.67999 5.15789 7.45763C5.15789 7.23524 5.34232 7.05085 5.56467 7.05085H5.70027V4.89219C4.7728 4.9627 4.00806 5.65695 3.86162 6.60067L2.74976 13.6515C2.65756 14.2373 2.82569 14.8339 3.21079 15.2895C3.59585 15.7396 4.15994 16 4.75654 16H13.966C14.5627 16 15.1267 15.7396 15.5118 15.2895C15.8969 14.8339 16.065 14.2373 15.9728 13.6515Z" fill="white"/>
<path d="M13.0223 3.66101L13.0223 4.89219C12.9681 4.88136 12.9138 4.88135 12.8541 4.88135L12.2087 4.88136L12.2087 3.66101C12.2087 2.09355 10.9341 0.813559 9.36123 0.813559C7.79377 0.813559 6.51377 2.09355 6.51377 3.66101L6.51382 4.88136L5.86835 4.88135C5.80869 4.88135 5.75449 4.88136 5.70027 4.89219L5.70022 3.66101C5.70022 1.64337 7.34362 0 9.36123 0C11.3789 0 13.0223 1.64337 13.0223 3.66101Z" fill="white"/>
<path d="M2.0339 10.5763H0.40678C0.182205 10.5763 0 10.3941 0 10.1695C0 9.94491 0.182205 9.76271 0.40678 9.76271H2.0339C2.25847 9.76271 2.44068 9.94491 2.44068 10.1695C2.44068 10.3941 2.25847 10.5763 2.0339 10.5763Z" fill="white"/>
<path d="M1.49152 12.7457H0.406778C0.182204 12.7457 0 12.5635 0 12.3389C0 12.1144 0.182204 11.9322 0.406778 11.9322H1.49152C1.7161 11.9322 1.8983 12.1144 1.8983 12.3389C1.8983 12.5635 1.7161 12.7457 1.49152 12.7457Z" fill="white"/>
<path d="M2.57627 8.40675H0.406779C0.182205 8.40675 0 8.22455 0 7.99997C0 7.7754 0.182205 7.59319 0.406779 7.59319H2.57627C2.80084 7.59319 2.98305 7.7754 2.98305 7.99997C2.98305 8.22455 2.80084 8.40675 2.57627 8.40675Z" fill="white"/>
</svg>
