<svg width="22" height="22" viewBox="0 0 22 22" fill="none" xmlns="http://www.w3.org/2000/svg">
<path d="M17.1528 16.25H21.2514C20.9362 17.0855 20.4466 17.8441 19.8151 18.4753L18.4753 19.816C17.8437 20.4467 17.0851 20.936 16.25 21.2514V17.1528C16.25 16.9133 16.3451 16.6837 16.5144 16.5144C16.6837 16.3451 16.9133 16.25 17.1528 16.25ZM9.10903 4.67729H8.3525L8.35792 6.22917H9.10903C9.21315 6.23272 9.31693 6.21528 9.41417 6.17788C9.51141 6.14049 9.60013 6.0839 9.67505 6.0115C9.74996 5.9391 9.80954 5.85236 9.85023 5.75644C9.89092 5.66053 9.91189 5.55742 9.91189 5.45323C9.91189 5.34904 9.89092 5.24592 9.85023 5.15001C9.80954 5.0541 9.74996 4.96736 9.67505 4.89496C9.60013 4.82256 9.51141 4.76597 9.41417 4.72858C9.31693 4.69118 9.21315 4.67374 9.10903 4.67729ZM21.6667 4.51389V14.0066C21.6667 14.1538 21.6549 14.2991 21.645 14.4444H17.1528C16.4345 14.4444 15.7456 14.7298 15.2377 15.2377C14.7298 15.7456 14.4444 16.4345 14.4444 17.1528V21.645C14.2991 21.6549 14.1538 21.6667 14.0066 21.6667H4.51389C3.31717 21.6652 2.16988 21.1892 1.32367 20.343C0.477463 19.4968 0.00143348 18.3495 0 17.1528L0 4.51389C0.00143348 3.31717 0.477463 2.16988 1.32367 1.32367C2.16988 0.477463 3.31717 0.00143348 4.51389 0L17.1528 0C18.3495 0.00143348 19.4968 0.477463 20.343 1.32367C21.1892 2.16988 21.6652 3.31717 21.6667 4.51389ZM6.31945 4.13563C6.31945 3.97999 6.25762 3.83074 6.14757 3.72069C6.03753 3.61064 5.88827 3.54882 5.73264 3.54882C5.57701 3.54882 5.42775 3.61064 5.31771 3.72069C5.20766 3.83074 5.14583 3.97999 5.14583 4.13563V7.15C5.14704 7.2427 5.12972 7.3347 5.09488 7.42061C5.06005 7.50652 5.0084 7.58461 4.94297 7.65028C4.87755 7.71596 4.79966 7.76791 4.71388 7.80308C4.62811 7.83824 4.53617 7.85592 4.44347 7.85507C4.31262 7.84726 4.1862 7.80477 4.07721 7.73194C3.96821 7.65912 3.88056 7.55859 3.82326 7.44069C3.78919 7.37061 3.74151 7.308 3.68301 7.25652C3.62451 7.20503 3.55635 7.16569 3.48251 7.14079C3.40866 7.11589 3.33061 7.10593 3.25287 7.11148C3.17514 7.11703 3.09929 7.13798 3.02973 7.17312C2.96017 7.20826 2.8983 7.25688 2.8477 7.31615C2.79711 7.37543 2.75881 7.44417 2.73504 7.51839C2.71126 7.5926 2.70248 7.67081 2.70921 7.74844C2.71594 7.82608 2.73805 7.90161 2.77424 7.97063C2.92905 8.28256 3.16645 8.54605 3.46061 8.73245C3.75476 8.91884 4.0944 9.02099 4.44257 9.02778C4.68816 9.02897 4.93158 8.98171 5.15889 8.88871C5.38619 8.79571 5.59293 8.6588 5.76726 8.48581C5.94159 8.31282 6.0801 8.10715 6.17485 7.88057C6.2696 7.65399 6.31874 7.41094 6.31945 7.16535V4.13563ZM11.0401 5.45368C11.0363 4.94512 10.8307 4.45886 10.4687 4.1017C10.1066 3.74455 9.6176 3.5457 9.10903 3.54882H8.125C7.88557 3.54882 7.65594 3.64393 7.48664 3.81324C7.31734 3.98254 7.22222 4.21217 7.22222 4.4516V8.46354C7.22222 8.61319 7.28167 8.7567 7.38748 8.86252C7.4933 8.96833 7.63681 9.02778 7.78646 9.02778C7.9361 9.02778 8.07962 8.96833 8.18543 8.86252C8.29125 8.7567 8.35069 8.61319 8.35069 8.46354V7.36125H9.10903C9.36108 7.3628 9.61096 7.31468 9.84441 7.21965C10.0779 7.12462 10.2903 6.98454 10.4696 6.80741C10.6489 6.63027 10.7916 6.41955 10.8895 6.18728C10.9874 5.95501 11.0385 5.70573 11.0401 5.45368ZM15.3472 6.93424C15.3472 6.75466 15.2759 6.58244 15.1489 6.45547C15.0219 6.32849 14.8497 6.25715 14.6701 6.25715H13.9931C13.8733 6.25715 13.7585 6.30471 13.6739 6.38936C13.5892 6.47401 13.5417 6.58883 13.5417 6.70854C13.5417 6.82826 13.5892 6.94307 13.6739 7.02772C13.7585 7.11237 13.8733 7.15993 13.9931 7.15993H14.2178V7.23576C14.2123 7.41216 14.1389 7.57961 14.0129 7.70322C13.8869 7.82683 13.7181 7.89707 13.5417 7.89931C13.4526 7.90015 13.3642 7.88321 13.2817 7.84947C13.1992 7.81573 13.1243 7.76588 13.0613 7.70282C12.9984 7.63977 12.9486 7.56478 12.915 7.48226C12.8813 7.39973 12.8645 7.31133 12.8655 7.22222V5.35528C12.8644 5.2661 12.8811 5.17759 12.9147 5.09496C12.9483 5.01233 12.998 4.93724 13.061 4.87409C13.124 4.81094 13.1989 4.761 13.2815 4.72721C13.364 4.69341 13.4525 4.67644 13.5417 4.67729C13.665 4.68104 13.7852 4.71723 13.8901 4.78221C13.995 4.84719 14.081 4.93867 14.1393 5.04743C14.1874 5.13904 14.2593 5.21594 14.3475 5.26998C14.4357 5.32402 14.5369 5.35318 14.6403 5.35438C14.738 5.3543 14.834 5.32901 14.919 5.28095C15.004 5.23289 15.0751 5.16369 15.1255 5.08005C15.1759 4.99641 15.2039 4.90118 15.2066 4.80357C15.2094 4.70596 15.1869 4.60929 15.1414 4.52292C14.9875 4.23136 14.7575 3.98692 14.4758 3.81557C14.1942 3.64422 13.8713 3.55236 13.5417 3.54972C13.3054 3.54865 13.0712 3.59418 12.8526 3.68369C12.6339 3.7732 12.435 3.90494 12.2674 4.07138C12.0997 4.23782 11.9664 4.43569 11.8753 4.65367C11.7841 4.87165 11.7368 5.10547 11.7361 5.34174V7.23757C11.7371 7.47369 11.7845 7.70731 11.8758 7.92508C11.967 8.14285 12.1003 8.34051 12.268 8.50675C12.4357 8.673 12.6344 8.80459 12.853 8.89398C13.0715 8.98338 13.3055 9.02885 13.5417 9.02778C14.018 9.02779 14.4751 8.83955 14.8133 8.50406C15.1515 8.16857 15.3434 7.71302 15.3472 7.23667V6.93424Z" fill="white"/>
</svg>
