<svg width="15" height="15" viewBox="0 0 15 15" fill="none" xmlns="http://www.w3.org/2000/svg">
<path d="M6.40265 6.09627L9.02005 3.47947L11.5206 5.97999L8.90378 8.59741L6.40265 6.09627ZM5.51873 6.9802L0.517723 11.9812C0.270499 12.2286 0.102149 12.5436 0.0339539 12.8866C-0.0342413 13.2296 0.000779599 13.5851 0.13459 13.9082C0.2684 14.2313 0.494992 14.5075 0.785724 14.7018C1.07646 14.8961 1.41828 14.9999 1.76797 15C2.00031 15.0007 2.23047 14.9553 2.44509 14.8663C2.65972 14.7773 2.85453 14.6466 3.01822 14.4818L8.01923 9.48072L5.51873 6.9802ZM11.6662 10.8147L12.4995 12.4788L13.3328 10.8147L15 9.97832L13.3328 9.1444L12.4995 7.4778L11.6662 9.1444L9.999 9.97832L11.6662 10.8147ZM4.1647 3.33694L4.998 5.00104L5.83129 3.33382L7.4985 2.50052L5.83129 1.66722L4.998 0L4.1647 1.66722L2.49749 2.50052L4.1647 3.33694ZM12.0825 2.92061L12.8121 4.37591L13.5416 2.91748L15 2.18795L13.5416 1.45843L12.8121 0L12.0825 1.45843L10.6241 2.18795L12.0825 2.92061Z" fill="white"/>
</svg>
