<svg width="15" height="15" viewBox="0 0 15 15" fill="none" xmlns="http://www.w3.org/2000/svg">
<path d="M7.5 0C5.65528 0.00324972 3.87599 0.683828 2.5 1.9125V0H1.25V3.21437C1.25033 3.52209 1.37272 3.81711 1.5903 4.03469C1.80789 4.25228 2.10291 4.37467 2.41062 4.375H5.625V3.125H3.0375C4.05176 2.09067 5.39382 1.44079 6.83421 1.28647C8.27461 1.13216 9.72388 1.48299 10.9342 2.27898C12.1446 3.07497 13.0408 4.26669 13.4698 5.65037C13.8987 7.03405 13.8336 8.52376 13.2857 9.86479C12.7378 11.2058 11.7411 12.3149 10.466 13.0023C9.19083 13.6898 7.71649 13.9129 6.29503 13.6337C4.87357 13.3544 3.59327 12.59 2.67304 11.4712C1.7528 10.3524 1.24979 8.94864 1.25 7.5H0C0 8.98336 0.439867 10.4334 1.26398 11.6668C2.08809 12.9001 3.25943 13.8614 4.62987 14.4291C6.00032 14.9968 7.50832 15.1453 8.96318 14.8559C10.418 14.5665 11.7544 13.8522 12.8033 12.8033C13.8522 11.7544 14.5665 10.418 14.8559 8.96318C15.1453 7.50832 14.9968 6.00032 14.4291 4.62987C13.8614 3.25943 12.9001 2.08809 11.6668 1.26398C10.4334 0.439867 8.98336 0 7.5 0Z" fill="white"/>
<path d="M6.8751 4.37461V7.75836L8.93322 9.81648L9.81696 8.93273L8.12509 7.24086V4.37461H6.8751Z" fill="white"/>
</svg>
