<svg width="15" height="15" viewBox="0 0 15 15" fill="none" xmlns="http://www.w3.org/2000/svg">
<path d="M14.0625 2.48751H12.1338C12.0102 2.48754 11.8894 2.52424 11.7866 2.59299C11.6838 2.66174 11.6038 2.75944 11.5565 2.87374C11.5092 2.98804 11.4968 3.11381 11.5209 3.23515C11.545 3.35649 11.6045 3.46796 11.6919 3.55545L12.3706 4.23488L10.1294 6.47775C10.0103 6.59167 9.85193 6.65525 9.6872 6.65525C9.52248 6.65525 9.3641 6.59167 9.24502 6.47775L9.13877 6.37077C8.78165 6.02922 8.30675 5.83863 7.81283 5.83863C7.31892 5.83863 6.84402 6.02922 6.4869 6.37077L3.29941 9.56146C3.18197 9.67935 3.11612 9.83911 3.11636 10.0056C3.11659 10.1721 3.18289 10.3317 3.30066 10.4492C3.41843 10.5668 3.57803 10.6327 3.74436 10.6325C3.91068 10.6322 4.07009 10.5659 4.18753 10.448L7.37502 7.25728C7.49403 7.14321 7.65244 7.07954 7.81721 7.07954C7.98198 7.07954 8.14039 7.14321 8.2594 7.25728L8.36564 7.36426C8.72291 7.70552 9.19775 7.89593 9.69158 7.89593C10.1854 7.89593 10.6603 7.70552 11.0175 7.36426L13.2588 5.12077L13.9375 5.8002C14.0252 5.88625 14.1363 5.94454 14.2569 5.96777C14.3775 5.991 14.5022 5.97816 14.6156 5.93084C14.7289 5.88352 14.8258 5.80382 14.8942 5.7017C14.9626 5.59958 14.9994 5.47956 15 5.35663V3.42595C15 3.17706 14.9012 2.93836 14.7254 2.76237C14.5496 2.58638 14.3111 2.48751 14.0625 2.48751Z" fill="white"/>
<path d="M14.375 13.7487H3.12499C2.62771 13.7487 2.1508 13.551 1.79917 13.199C1.44754 12.847 1.25 12.3696 1.25 11.8719V0.625626C1.25 0.459699 1.18415 0.300569 1.06694 0.183242C0.949729 0.0659139 0.790758 0 0.624998 0C0.459238 0 0.300268 0.0659139 0.183058 0.183242C0.0658478 0.300569 0 0.459699 0 0.625626V11.8719C0.000992408 12.7012 0.33055 13.4963 0.916385 14.0827C1.50222 14.6691 2.2965 14.999 3.12499 15H14.375C14.5407 15 14.6997 14.9341 14.8169 14.8168C14.9341 14.6994 15 14.5403 15 14.3744C15 14.2084 14.9341 14.0493 14.8169 13.932C14.6997 13.8147 14.5407 13.7487 14.375 13.7487Z" fill="white"/>
</svg>
