<svg width="25" height="26" viewBox="0 0 25 26" fill="" xmlns="http://www.w3.org/2000/svg">
<path d="M16.5455 14.0829C16.0317 14.7556 15.3656 15.3017 14.5998 15.6777C13.834 16.0538 12.9895 16.2496 12.1333 16.2496C11.2771 16.2496 10.4327 16.0538 9.66688 15.6777C8.90107 15.3017 8.23493 14.7556 7.72121 14.0829C7.28886 14.6553 6.74479 15.1374 6.12075 15.5012C5.49671 15.8649 4.80517 16.103 4.08647 16.2015C3.36777 16.3 2.63629 16.257 1.93469 16.075C1.23309 15.893 0.575409 15.5756 0 15.1413V20.5831C0.00175146 22.0192 0.583373 23.396 1.61729 24.4115C2.6512 25.427 4.05298 25.9983 5.51515 26H18.7515C20.2137 25.9983 21.6155 25.427 22.6494 24.4115C23.6833 23.396 24.2649 22.0192 24.2667 20.5831V15.1381C23.6915 15.5725 23.034 15.8901 22.3325 16.0724C21.631 16.2547 20.8996 16.298 20.1809 16.1998C19.4622 16.1016 18.7706 15.8638 18.1465 15.5003C17.5223 15.1369 16.9781 14.655 16.5455 14.0829Z" fill=""/>
<path d="M22.8327 3.39213C22.6192 2.42694 22.0744 1.56317 21.2896 0.945603C20.5048 0.328035 19.5277 -0.00579302 18.5221 7.60886e-05H17.6485V3.25021C17.6485 3.53754 17.5323 3.8131 17.3254 4.01627C17.1186 4.21945 16.838 4.33359 16.5455 4.33359C16.2529 4.33359 15.9724 4.21945 15.7655 4.01627C15.5586 3.8131 15.4424 3.53754 15.4424 3.25021V7.60886e-05H8.82424V3.25021C8.82424 3.53754 8.70803 3.8131 8.50117 4.01627C8.29431 4.21945 8.01375 4.33359 7.72121 4.33359C7.42867 4.33359 7.14811 4.21945 6.94125 4.01627C6.73439 3.8131 6.61818 3.53754 6.61818 3.25021V7.60886e-05H5.74458C4.73882 -0.00574001 3.76161 0.328242 2.97678 0.946024C2.19195 1.56381 1.64722 2.42783 1.43394 3.39321L0.0242666 9.64214L0 10.8555C0.00144852 11.2823 0.088475 11.7047 0.256111 12.0985C0.423746 12.4922 0.668708 12.8497 0.97701 13.1505C1.59965 13.758 2.4425 14.0977 3.32012 14.0948C3.75468 14.0934 4.18469 14.0079 4.58562 13.8433C4.98654 13.6786 5.35052 13.438 5.65677 13.1352C5.96302 12.8324 6.20555 12.4733 6.37051 12.0784C6.53547 11.6836 6.61963 11.2607 6.61818 10.8339C6.61818 10.5465 6.73439 10.271 6.94125 10.0678C7.14811 9.86462 7.42867 9.75047 7.72121 9.75047C8.01375 9.75047 8.29431 9.86462 8.50117 10.0678C8.70803 10.271 8.82424 10.5465 8.82424 10.8339C8.82424 11.6958 9.17288 12.5225 9.79345 13.132C10.414 13.7416 11.2557 14.084 12.1333 14.084C13.011 14.084 13.8526 13.7416 14.4732 13.132C15.0938 12.5225 15.4424 11.6958 15.4424 10.8339C15.4424 10.5465 15.5586 10.271 15.7655 10.0678C15.9724 9.86462 16.2529 9.75047 16.5455 9.75047C16.838 9.75047 17.1186 9.86462 17.3254 10.0678C17.5323 10.271 17.6485 10.5465 17.6485 10.8339C17.6485 11.6958 17.9971 12.5225 18.6177 13.132C19.2383 13.7416 20.08 14.084 20.9576 14.084C21.8352 14.084 22.6769 13.7416 23.2975 13.132C23.918 12.5225 24.2667 11.6958 24.2667 10.8339V9.8664L22.8327 
3.39213Z" fill=""/>
</svg>
