<svg width="27" height="26" viewBox="0 0 27 26" fill="" xmlns="http://www.w3.org/2000/svg">
<path d="M9.71865 1.72317C10.046 1.17378 9.85172 0.471275 9.2848 0.154082C8.71788 -0.16311 7.99297 0.0251261 7.66566 0.574519L5.04239 4.9777H3.16078C1.41513 4.9777 0 6.34909 0 8.04078C0 9.13734 0.594598 10.0993 1.48839 10.6405C1.57941 10.6956 1.68569 10.721 1.79302 10.721H25.0736C25.181 10.721 25.2872 10.6956 25.3783 10.6405C26.2721 10.0993 26.8667 9.13734 26.8667 8.04078C26.8667 6.34909 25.4515 4.9777 23.7059 4.9777H21.8243L19.201 0.574519C18.8737 0.0251261 18.1488 -0.16311 17.5819 0.154082C17.0149 0.471275 16.8207 1.17378 17.148 1.72317L19.087 4.9777H7.77971L9.71865 1.72317Z" fill=""/>
<path fill-rule="" clip-rule="evenodd" d="M25.0252 13.3776C25.0591 13.1901 24.9103 13.0183 24.7139 13.0183H2.15283C1.9564 13.0183 1.80755 13.1901 1.84151 13.3776L3.42272 22.1051C3.75165 23.9207 5.2515 25.3234 7.13551 25.5774C11.3139 26.1409 15.5527 26.1409 19.7312 25.5774C21.6152 25.3234 23.115 23.9207 23.444 22.1051L25.0252 13.3776ZM11.4578 16.4642C11.4578 15.8299 10.9272 15.3156 10.2725 15.3156C9.61793 15.3156 9.08725 15.8299 9.08725 16.4642V19.5273C9.08725 20.1617 9.61793 20.676 10.2725 20.676C10.9272 20.676 11.4578 20.1617 11.4578 19.5273V16.4642ZM16.5941 15.3156C17.2487 15.3156 17.7794 15.8299 17.7794 16.4642V19.5273C17.7794 20.1617 17.2487 20.676 16.5941 20.676C15.9395 20.676 15.4088 20.1617 15.4088 19.5273V16.4642C15.4088 15.8299 15.9395 15.3156 16.5941 15.3156Z" fill=""/>
</svg>
