<svg width="25" height="25" viewBox="0 0 25 25" fill="none" xmlns="http://www.w3.org/2000/svg">
<path d="M23.784 9.55322L19.7427 5.51259C19.3288 5.11294 18.6693 5.12441 18.2696 5.53823C17.8796 5.94189 17.8796 6.58188 18.2696 6.98554L22.3109 11.0262C22.4309 11.1486 22.5358 11.285 22.6234 11.4324C22.6078 11.4324 22.5953 11.4241 22.5796 11.4241L6.23948 11.4574C5.6641 11.4574 5.19766 11.9238 5.19766 12.4991C5.19766 13.0744 5.6641 13.5407 6.23948 13.5407L22.5734 13.5074C22.6026 13.5074 22.6265 13.4928 22.6547 13.4907C22.5623 13.6669 22.4451 13.829 22.3067 13.972L18.2654 18.0126C17.8515 18.4123 17.8401 19.0717 18.2398 19.4855C18.6395 19.8993 19.299 19.9108 19.7129 19.5111C19.7216 19.5027 19.7302 19.4942 19.7386 19.4855L23.7798 15.4449C25.4067 13.8178 25.4067 11.1803 23.7798 9.55322H23.784Z" fill="white"/>
<path d="M7.29284 22.9167H5.20915C3.48299 22.9167 2.08364 21.5175 2.08364 19.7917V5.20835C2.08364 3.48247 3.48299 2.08335 5.20915 2.08335H7.29284C7.86822 2.08335 8.33466 1.61699 8.33466 1.0417C8.33466 0.466406 7.86827 0 7.29284 0H5.20915C2.33368 0.0034668 0.00346736 2.3333 0 5.20835V19.7917C0.00346736 22.6667 2.33368 24.9966 5.2092 25H7.29289C7.86827 25 8.33471 24.5336 8.33471 23.9583C8.33471 23.3831 7.86827 22.9167 7.29284 22.9167Z" fill="white"/>
</svg>
