<svg width="26" height="23" viewBox="0 0 26 23" fill="" xmlns="http://www.w3.org/2000/svg">
<path fill-rule="evenodd" clip-rule="evenodd" d="M25.9965 8.80795L26 13.4336C25.9654 13.8743 25.9209 14.3145 25.8664 14.7538C25.7752 15.4885 25.1414 16.0811 24.3454 16.1649C21.8525 16.4274 19.2728 16.4274 16.7799 16.1649C15.984 16.0811 15.3502 15.4885 15.259 14.7538C14.9612 12.3547 14.9612 9.93103 15.259 7.53192C15.3502 6.79723 15.984 6.20462 16.7799 6.1208C19.2728 5.85826 21.8525 5.85826 24.3454 6.1208C25.1414 6.20462 25.7752 6.79723 25.8664 7.53192C25.9191 7.95658 25.9625 8.38202 25.9965 8.80795ZM20.5627 9.22766C19.4402 9.22766 18.5302 10.0851 18.5302 11.1429C18.5302 12.2006 19.4402 13.0581 20.5627 13.0581C21.6852 13.0581 22.5952 12.2006 22.5952 11.1429C22.5952 10.0851 21.6852 9.22766 20.5627 9.22766Z" fill=""/>
<path d="M25.1746 3.53278C25.3853 3.87657 24.9899 4.26154 24.5712 4.21745C21.9282 3.93911 19.1971 3.93911 16.5542 4.21745C14.8342 4.39859 13.4431 5.6748 13.2402 7.30943C12.9241 9.85637 12.9241 12.4293 13.2402 14.9763C13.4431 16.6109 14.8342 17.8871 16.5542 18.0683C19.1971 18.3466 21.9282 18.3466 24.5712 18.0683C24.9927 18.0239 25.3913 18.4115 25.1786 18.7572C24.1236 20.4718 22.2427 21.6684 20.057 21.8851L19.1737 21.9727C14.6875 22.4175 10.1625 22.3882 5.68314 21.8852L5.09786 21.8195C2.68305 21.5483 0.769706 19.7706 0.448064 17.4992C-0.149355 13.2803 -0.149355 9.00538 0.448064 4.78651C0.769706 2.51513 2.68305 0.73737 5.09786 0.466223L5.68314 0.400504C10.1625 -0.102459 14.6875 -0.131794 19.1737 0.313048L20.057 0.400631C22.2445 0.617536 24.1225 1.81595 25.1746 3.53278Z" fill=""/>
</svg>
