<svg width="24" height="26" viewBox="0 0 24 26" fill="" xmlns="http://www.w3.org/2000/svg">
<path d="M0.437981 19.5C1.3343 21.0552 3.32205 21.5896 4.87768 20.6935L4.88083 20.6916L5.36302 20.4132C6.27326 21.1918 7.31953 21.7956 8.44915 22.1942V22.75C8.44915 24.5449 9.90462 26 11.7 26C13.4954 26 14.9509 24.5449 14.9509 22.75V22.1943C16.0806 21.795 17.1269 21.1905 18.037 20.4111L18.5214 20.6906C20.0773 21.588 22.0665 21.0545 22.9642 19.4989C23.8619 17.9433 23.3282 15.9547 21.7722 15.0572L21.2911 14.7799C21.5077 13.6017 21.5077 12.3939 21.2911 11.2157L21.7722 10.9384C23.3282 10.0409 23.8619 8.05233 22.9642 6.4967C22.0665 4.94112 20.0774 4.40756 18.5214 5.30502L18.0392 5.58345C17.128 4.80584 16.081 4.20316 14.9509 3.80575V3.25C14.9509 1.45509 13.4954 0 11.7 0C9.90462 0 8.44915 1.45509 8.44915 3.25V3.80575C7.31937 4.20504 6.27306 4.80954 5.36302 5.58893L4.87864 5.30837C3.3226 4.41086 1.33349 4.94442 0.435796 6.5C-0.461896 8.05558 0.0717518 10.0442 1.62779 10.9417L2.10892 11.219C1.89233 12.3972 1.89233 13.605 2.10892 14.7832L1.62779 15.0605C0.0760694 15.9603 -0.455851 17.9451 0.437981 19.5ZM11.7 8.66668C14.0938 8.66668 16.0345 10.6068 16.0345 13C16.0345 15.3932 14.0938 17.3333 11.7 17.3333C9.30615 17.3333 7.36555 15.3932 7.36555 13C7.36555 10.6068 9.30615 8.66668 11.7 8.66668Z" fill=""/>
</svg>
