<svg width="22" height="26" viewBox="0 0 22 26" fill="" xmlns="http://www.w3.org/2000/svg">
<path d="M13 7.58333V0.498333C14.0021 0.87678 14.9124 1.46392 15.6704 2.22083L19.4447 5.99733C20.2025 6.75445 20.7901 7.66447 21.1683 8.66667H14.0833C13.796 8.66667 13.5205 8.55253 13.3173 8.34937C13.1141 8.1462 13 7.87065 13 7.58333ZM21.6667 11.3588V20.5833C21.6649 22.0194 21.0937 23.3961 20.0783 24.4116C19.0628 25.427 17.6861 25.9983 16.25 26H5.41667C3.98061 25.9983 2.60385 25.427 1.5884 24.4116C0.572955 23.3961 0.00172018 22.0194 0 20.5833V5.41667C0.00172018 3.98061 0.572955 2.60385 1.5884 1.5884C2.60385 0.572955 3.98061 0.00172018 5.41667 0H10.3079C10.4845 0 10.6589 0.0140833 10.8333 0.026V7.58333C10.8333 8.44529 11.1757 9.27194 11.7852 9.88143C12.3947 10.4909 13.2214 10.8333 14.0833 10.8333H21.6407C21.6526 11.0078 21.6667 11.1822 21.6667 11.3588ZM13 20.5833C13 20.296 12.8859 20.0205 12.6827 19.8173C12.4795 19.6141 12.204 19.5 11.9167 19.5H6.5C6.21268 19.5 5.93713 19.6141 5.73397 19.8173C5.5308 20.0205 5.41667 20.296 5.41667 20.5833C5.41667 20.8707 5.5308 21.1462 5.73397 21.3494C5.93713 21.5525 6.21268 21.6667 6.5 21.6667H11.9167C12.204 21.6667 12.4795 21.5525 12.6827 21.3494C12.8859 21.1462 13 20.8707 13 20.5833ZM16.25 16.25C16.25 15.9627 16.1359 15.6871 15.9327 15.484C15.7295 15.2808 15.454 15.1667 15.1667 15.1667H6.5C6.21268 15.1667 5.93713 15.2808 5.73397 15.484C5.5308 15.6871 5.41667 15.9627 5.41667 16.25C5.41667 16.5373 5.5308 16.8129 5.73397 17.016C5.93713 17.2192 6.21268 17.3333 6.5 17.3333H15.1667C15.454 17.3333 15.7295 17.2192 15.9327 17.016C16.1359 16.8129 16.25 16.5373 16.25 16.25Z" fill=""/>
</svg>
