<svg width="26" height="26" viewBox="0 0 26 26" fill="" xmlns="http://www.w3.org/2000/svg">
<path d="M9.75006 12.9997C13.3399 12.9997 16.2501 10.0896 16.2501 6.49983C16.2501 2.91007 13.3399 0 9.75006 0C6.16019 0 3.25002 2.91007 3.25002 6.49983C3.25002 10.0896 6.16019 12.9997 9.75006 12.9997Z" fill=""/>
<path d="M14.13 15.1669H5.37012C3.9464 15.1687 2.58149 15.735 1.57477 16.7417C0.568051 17.7484 0.00172016 19.1132 0 20.5369V26H19.5001V20.5369C19.4984 19.1132 18.9321 17.7484 17.9254 16.7417C16.9186 15.735 15.5537 15.1687 14.13 15.1669Z" fill=""/>
<path d="M22.75 10.8324V7.58247H20.5833V10.8324H17.3333V12.999H20.5833V16.2489H22.75V12.999H26V10.8324H22.75Z" fill=""/>
</svg>
