<svg width="26" height="26" viewBox="0 0 26 26" fill="" xmlns="http://www.w3.org/2000/svg">
<path d="M20.5833 0H5.41667C3.98061 0.00172018 2.60385 0.572955 1.5884 1.5884C0.572955 2.60385 0.00172018 3.98061 0 5.41667V20.5833C0.00172018 22.0194 0.572955 23.3961 1.5884 24.4116C2.60385 25.427 3.98061 25.9983 5.41667 26H20.5833C22.0194 25.9983 23.3961 25.427 24.4116 24.4116C25.427 23.3961 25.9983 22.0194 26 20.5833V5.41667C25.9983 3.98061 25.427 2.60385 24.4116 1.5884C23.3961 0.572955 22.0194 0.00172018 20.5833 0ZM21.6667 11.9167H23.8333V14.0833H21.6667V11.9167ZM21.6667 9.75V7.58333H23.8333V9.75H21.6667ZM4.33333 14.0833H2.16667V11.9167H4.33333V14.0833ZM6.44475 14.0833V11.9167H19.4447V14.0833H6.44475ZM4.33333 9.75H2.16667V7.58333H4.33333V9.75ZM2.16667 16.25H4.33333V18.4167H2.16667V16.25ZM21.6667 16.25H23.8333V18.4167H21.6667V16.25ZM23.8333 5.41667H21.6667V2.366C22.2982 2.58926 22.8452 3.00217 23.2331 3.54824C23.6209 4.09432 23.8306 4.74688 23.8333 5.41667ZM4.33333 2.366V5.41667H2.16667C2.16944 4.74688 2.37909 4.09432 2.76693 3.54824C3.15477 3.00217 3.70185 2.58926 4.33333 2.366ZM2.16667 20.5833H4.33333V23.634C3.70185 23.4107 3.15477 22.9978 2.76693 22.4518C2.37909 21.9057 2.16944 21.2531 2.16667 20.5833ZM21.6667 23.634V20.5833H23.8333C23.8306 21.2531 23.6209 21.9057 23.2331 22.4518C22.8452 22.9978 22.2982 23.4107 21.6667 23.634Z" fill=""/>
</svg>
